<svg width="84" height="71" viewBox="0 0 84 71" fill="none" xmlns="http://www.w3.org/2000/svg">
<g id="Meditation">
<path id="Vector" d="M83.9999 59.7185C82.4628 62.1058 80.2222 63.7297 77.9424 65.2566C71.5229 69.567 64.4603 71.4512 56.7547 70.9091C53.3317 70.6813 49.9667 69.8997 46.7871 68.5939C59.6179 68.0493 70.3528 63.006 79.0014 53.2627C80.8057 54.812 82.8796 56.0131 83.9999 58.2363V59.7185Z" fill="#C2E1A3"/>
<path id="Vector_2" d="M22.756 31.635C22.9766 19.3328 26.9431 9.39797 34.8318 1.09948C36.2291 -0.370222 37.8225 -0.362762 39.2272 1.09948C45.5813 7.76165 49.5698 15.6423 50.7808 24.8411C52.5948 38.5757 48.6431 50.4726 39.3105 60.5541C37.8274 62.1556 36.2291 62.1233 34.7215 60.5392C28.6769 54.2726 24.6998 46.2566 23.3395 37.5984C22.9644 35.3752 22.8908 33.1022 22.756 31.635Z" fill="#C2E1A3"/>
<path id="Vector_3" d="M49.9344 55.9537C51.0964 53.447 52.3859 50.9627 53.4204 48.3689C56.117 41.5327 57.0975 34.413 56.5362 27.0644C56.1976 22.6177 55.2394 18.2422 53.69 14.0684C53.4449 13.4317 53.5356 13.106 54.146 12.8548C56.997 11.691 59.8137 10.4277 62.6991 9.37327C64.5474 8.69188 66.0722 9.62195 66.5086 11.584C70.0109 27.2095 66.145 40.659 54.9109 51.9325C53.5871 53.253 52.0427 54.3423 50.5914 55.531C50.3805 55.6844 50.1612 55.8256 49.9344 55.9537Z" fill="#C2E1A3"/>
<path id="Vector_4" d="M24.0224 56.1528C22.0073 54.3747 19.8771 52.711 17.9944 50.7962C11.6402 44.3305 7.91897 36.4995 6.61727 27.4898C5.87543 22.1973 6.18044 16.8079 7.51449 11.6364C8.00477 9.632 9.47563 8.67955 11.3755 9.37088C14.1799 10.393 16.9108 11.609 19.6858 12.7256C20.4777 13.0414 20.61 13.4542 20.3012 14.2674C17.9551 20.4596 17.0628 26.9004 17.4134 33.4979C17.7889 41.045 19.949 48.3897 23.7111 54.9118L24.2627 55.8742L24.0224 56.1528Z" fill="#C2E1A3"/>
<path id="Vector_5" d="M1.39386 29.7302C4.15172 44.1537 11.734 55.0758 24.1211 62.7178C23.6136 62.6581 23.1037 62.6034 22.5963 62.5338C22.0889 62.4641 21.5667 62.4094 21.0592 62.3025C7.94572 59.5272 -1.38934 51.9582 -6.94592 39.5954C-7.68135 37.9442 -8.17163 36.1736 -8.70605 34.4328C-8.81631 34.1001 -8.86018 33.7486 -8.83509 33.3985C-8.81 33.0485 -8.71646 32.7071 -8.55992 32.3941C-8.40339 32.0812 -8.18699 31.8029 -7.92335 31.5757C-7.65971 31.3485 -7.35411 31.1768 -7.02436 31.0706C-4.29435 30.2246 -1.46038 29.7734 1.39386 29.7302Z" fill="#C2E1A3"/>
<path id="Vector_6" d="M49.933 62.7525C62.2833 55.1155 69.8729 44.1885 72.6798 29.6008C74.6018 29.8495 76.5237 30.0982 78.4407 30.3966C79.2221 30.5271 79.9943 30.709 80.7524 30.9412C82.4022 31.4386 83.2284 32.8859 82.7307 34.5446C78.198 49.6321 68.282 58.8283 53.1493 62.28C52.0952 62.5212 51.0067 62.6008 49.933 62.7525Z" fill="#C2E1A3"/>
<path id="Vector_7" d="M-4.99201 53.2178C3.69341 63.0034 14.4233 68.0391 27.3032 68.733C25.7833 69.193 24.2854 69.7675 22.7386 70.0957C10.7756 72.6372 0.256507 69.7774 -8.72799 61.3098C-10.4146 59.7208 -10.4293 58.1466 -8.74025 56.5401C-7.54885 55.3962 -6.26675 54.3393 -4.99201 53.2178Z" fill="#C2E1A3"/>
</g>
</svg>
